<svg version="1.1" xmlns="http://www.w3.org/2000/svg" xmlns:xlink="http://www.w3.org/1999/xlink" x="0px" y="0px" viewBox="0 0 512 512" style="enable-background:new 0 0 512 512;" xml:space="preserve">
<style type="text/css">
	.st0{fill:#C5E9F9;}
	.st1{fill:#5E889E;}
</style>
<g id="Layer_1">
<circle class="st0" cx="256.3281" cy="255.9678" r="248.873" id="id_101" style="fill: rgb(48, 217, 200);"></circle>
</g>
<g id="Layer_2">
<g>
<path class="st1" d="M409.8658,219.6193L261.012,104.4389c-1.359-1.0544-3.0654-1.6874-4.9216-1.6874
			c-1.8547,0-3.561,0.633-4.9248,1.6874L102.3165,219.6193c-2.6518,2.0488-3.8372,5.6209-2.6976,8.9641
			c1.1491,3.3416,4.2713,5.4441,7.6161,5.4441h297.706c3.3479,0,6.4717-2.1025,7.6161-5.4441
			C413.6951,225.2402,412.5097,221.6681,409.8658,219.6193z M191.476,197.2004l64.6144-50.0025l64.6144,50.0025H191.476z" id="id_102" style="fill: rgb(0, 0, 0);"></path>
<g>
<path class="st1" d="M198.3628,351.1037h-8.0944v-85.1818c5.8545,0,10.6483-4.7938,10.6483-10.6467
				c0-5.8608-4.7938-10.6483-10.6483-10.6483h-41.2516c-5.8577,0-10.653,4.7875-10.653,10.6483
				c0,5.8529,4.7938,10.6467,10.653,10.6467v85.1818h-8.0912c-1.4096,0-2.5618,1.1459-2.5618,2.5508v5.1079
				c0,1.4064,1.1507,2.5571,2.5618,2.5571h57.4371c1.4033,0,2.5539-1.1507,2.5539-2.5571v-5.1079
				C200.9167,352.248,199.7645,351.1037,198.3628,351.1037z" id="id_103" style="fill: rgb(0, 0, 0);"></path>
<path class="st1" d="M284.8057,351.1037h-8.088v-85.1818c5.8529,0,10.6452-4.7938,10.6452-10.6467
				c0-5.8608-4.7922-10.6483-10.6452-10.6483H235.463c-5.8577,0-10.6483,4.7875-10.6483,10.6483
				c0,5.8529,4.7906,10.6467,10.6483,10.6467v85.1818h-8.0896c-1.4096,0-2.5587,1.1459-2.5587,2.5508v5.1079
				c0,1.4064,1.1491,2.5571,2.5587,2.5571h57.434c1.4064,0,2.5571-1.1507,2.5571-2.5571v-5.1079
				C287.3629,352.248,286.2122,351.1037,284.8057,351.1037z" id="id_104" style="fill: rgb(0, 0, 0);"></path>
<path class="st1" d="M371.255,351.1037h-8.0944v-85.1818c5.8577,0,10.6515-4.7938,10.6515-10.6467
				c0-5.8608-4.7938-10.6483-10.6515-10.6483h-41.25c-5.8545,0-10.6483,4.7875-10.6483,10.6483
				c0,5.8529,4.7938,10.6467,10.6483,10.6467v85.1818h-8.0944c-1.4001,0-2.554,1.1459-2.554,2.5508v5.1079
				c0,1.4064,1.1539,2.5571,2.554,2.5571h57.4387c1.4064,0,2.5571-1.1507,2.5571-2.5571v-5.1079
				C373.8121,352.248,372.6614,351.1037,371.255,351.1037z" id="id_105" style="fill: rgb(0, 0, 0);"></path>
</g>
<path class="st1" d="M387.63,390.2559v-13.1486c0-1.3512-0.5146-2.6976-1.5453-3.722c-1.0228-1.0307-2.3693-1.5406-3.7157-1.5406
			H129.8149c-1.3464,0-2.6944,0.5083-3.722,1.5406c-1.0244,1.0244-1.5406,2.3708-1.5406,3.722v13.1486h-21.0472
			c-1.3496,0-2.696,0.5161-3.722,1.5406c-1.0276,1.0307-1.5406,2.3772-1.5406,3.722v13.1502h315.6926v-13.1502
			c0-1.3464-0.5146-2.6913-1.5437-3.722c-1.0197-1.0228-2.3693-1.5406-3.7173-1.5406H387.63z" id="id_106" style="fill: rgb(0, 0, 0);"></path>
</g>
</g>
</svg>