<svg xmlns="http://www.w3.org/2000/svg" viewBox="0 0 512 512"><title>Interest_rate</title><g id="Interest_rate"><path d="M294.59,65.29A199.7,199.7,0,0,0,261.88,68l-4.3-14L218.13,96.53l56.53,12.92-4.12-13.37a170.85,170.85,0,0,1,24-1.72c92.82,0,168.33,75.52,168.33,168.34S387.41,431,294.59,431a168.69,168.69,0,0,1-79.24-19.77L201.64,436.9a197.82,197.82,0,0,0,92.95,23.21C403.44,460.11,492,371.55,492,262.7S403.44,65.29,294.59,65.29Zm0,384.82a188,188,0,0,1-79.29-17.56l4.29-8a179,179,0,0,0,75,16.49c98.33,0,178.33-80,178.33-178.33s-80-178.34-178.33-178.34a180.31,180.31,0,0,0-25.47,1.82l-11.59,1.65,2.47,8-22.76-5.2,15.88-17.12,1.78,5.78,8.63-1.43a188.59,188.59,0,0,1,31.06-2.58C397.93,75.29,482,159.36,482,262.7S397.93,450.11,294.59,450.11Z" id="id_101" style="fill: rgb(79, 219, 212);"></path><path d="M222.17,372.76l-5.51,8.35a141.24,141.24,0,0,0,77.93,23.32c78.15,0,141.73-63.58,141.73-141.73S372.74,121,294.59,121a141.33,141.33,0,0,0-75.19,21.57l5.31,8.47a131.36,131.36,0,0,1,69.88-20c72.64,0,131.73,59.1,131.73,131.74A131.76,131.76,0,0,1,222.17,372.76Z" id="id_102" style="fill: rgb(79, 219, 212);"></path><path d="M224.71,218.65a25.83,25.83,0,1,0,25.83-25.83A25.86,25.86,0,0,0,224.71,218.65Zm41.66,0a15.83,15.83,0,1,1-15.83-15.83A15.85,15.85,0,0,1,266.37,218.65Z" id="id_103" style="fill: rgb(79, 214, 219);"></path><path d="M363.57,305.85a25.83,25.83,0,1,0-25.83,25.83A25.86,25.86,0,0,0,363.57,305.85Zm-41.66,0a15.83,15.83,0,1,1,15.83,15.83A15.85,15.85,0,0,1,321.91,305.85Z" id="id_104" style="fill: rgb(79, 219, 212);"></path><path d="M231.76,347.33,379.22,199.87l-21.8-21.8L210,325.52ZM365.07,199.87,231.76,333.18l-7.66-7.66L357.42,192.21Z" id="id_105" style="fill: rgb(79, 214, 219);"></path><path d="M204.74,319.22H184.13V291.37h20.61V243.75H157.41a80.69,80.69,0,1,0-74.54,0H35.54V281.6H14.92v47.62H35.54v27.61H14.92v47.62H184.13V366.83h20.61Zm-155.29-147a70.69,70.69,0,1,1,70.69,70.68A70.77,70.77,0,0,1,49.45,172.23Zm-3.91,81.52h149.2v27.62h-9.26V267.56h-10v13.81H155.31V267.56h-10v13.81H125.14V267.56h-10v13.81H95V267.56H85v13.81H64.8V267.56h-10v13.81H45.54ZM34.18,305.41v13.81H24.92V291.6H174.13v27.62h-9.27V305.41h-10v13.81H134.69V305.41h-10v13.81H104.52V305.41h-10v13.81H74.35V305.41h-10v13.81H44.18V305.41Zm140,89h-9.27V380.64h-10v13.81H134.69V380.64h-10v13.81H104.52V380.64h-10v13.81H74.35V380.64h-10v13.81H44.18V380.64h-10v13.81H24.92V366.83H174.13Zm20.61-37.62h-9.26V343h-10v13.81H155.31V343h-10v13.81H125.14V343h-10v13.81H95V343H85v13.81H64.8V343h-10v13.81H45.54V329.22h149.2Z" id="id_106" style="fill: rgb(79, 219, 217);"></path><path d="M125.15,213.58v-5.36c.41-.1.82-.19,1.22-.31a20.58,20.58,0,0,0,14.45-20.42c-.17-6.13-2.35-14.86-19.26-19.82-10.67-3.13-11.72-5.86-12-9.38-.52-5.79,3.11-10.93,8.43-12l.81-.13a9.3,9.3,0,0,1,7.37,2.35,10.23,10.23,0,0,1,3.44,7.67v.56l10,0v-.56a20.2,20.2,0,0,0-6.8-15.18,19.51,19.51,0,0,0-7.63-4.17v-5.53h-10v5.37a20.9,20.9,0,0,0-15.58,22.45c1,10.62,8.35,14.91,19.17,18.09,9.9,2.9,12,6.17,12.08,10.5a10.42,10.42,0,0,1-7.3,10.55,12,12,0,0,1-1.94.42,9.3,9.3,0,0,1-7.41-2.33,10.19,10.19,0,0,1-3.47-7.67h-10a20.23,20.23,0,0,0,6.86,15.18,19.49,19.49,0,0,0,7.59,4.14v5.52Z" id="id_107" style="fill: rgb(79, 214, 219);"></path></g></svg>