<svg id="Layer_1" data-name="Layer 1" xmlns="http://www.w3.org/2000/svg" viewBox="0 0 128 128"><defs><style>.cls-1{fill:#2d3e50;}.cls-2{fill:#2e79bd;}</style></defs><title>n</title><path class="cls-1" d="M72.07252,67.21705H93.50595a2.2952,2.2952,0,0,1,2.2952,2.2952V82.3455a2.29665,2.29665,0,0,1-2.29665,2.29665h-21.432a2.29665,2.29665,0,0,1-2.29665-2.29665V69.5137A2.29665,2.29665,0,0,1,72.07252,67.21705Z" id="id_101" style="fill: rgb(74, 212, 210);"></path><path class="cls-1" d="M105.78688,59.13966c-.4942,0-.98839-.0208-1.47738-.06242V71.51h.02083v31.43046a4.75042,4.75042,0,0,0,.04159.56182H58.29265c-.02083-4.31248,0-31.50329-.02083-35.85219l-23.15406.2861v35.56608H23.62654a4.75021,4.75021,0,0,0,.04162-.56182V71.51h.0208V59.07724c-.489.04162-.98319.06242-1.47735.06242a18.306,18.306,0,0,1-7.12674-1.441L15.012,110.94116h97.89638l.00521-53.23725A18.33857,18.33857,0,0,1,105.78688,59.13966Z" id="id_102" style="fill: rgb(75, 214, 212);"></path><path class="cls-2" d="M126.22964,45.30337l-9.378-28.24453H11.14836l-9.378,28.24453s-.134,0,0,.0061A17.18083,17.18083,0,0,1,13.097,49.90711a12.61686,12.61686,0,0,0,2.33839,1.84517,12.89538,12.89538,0,0,0,15.88779-1.84517,16.65889,16.65889,0,0,1,9.76161-4.60374h3.77556a17.29108,17.29108,0,0,1,9.91995,4.60374,13.15984,13.15984,0,0,0,18.43933,0,17.29108,17.29108,0,0,1,9.91995-4.60374h3.77556a16.65889,16.65889,0,0,1,9.76161,4.60374,12.89538,12.89538,0,0,0,15.88779,1.84517,12.61686,12.61686,0,0,0,2.33839-1.84517,17.18083,17.18083,0,0,1,11.32668-4.59764C126.3636,45.30337,126.22964,45.30337,126.22964,45.30337Z" id="id_103" style="fill: rgb(77, 214, 212);"></path></svg>